<?xml version="1.0" standalone="no"?>
<!DOCTYPE svg PUBLIC "-//W3C//DTD SVG 20010904//EN"
 "http://www.w3.org/TR/2001/REC-SVG-20010904/DTD/svg10.dtd">
<svg version="1.0" xmlns="http://www.w3.org/2000/svg"
 width="512.000000pt" height="512.000000pt" viewBox="0 0 512.000000 512.000000"
 preserveAspectRatio="xMidYMid meet">

<g transform="translate(0.000000,512.000000) scale(0.100000,-0.100000)"
fill="#000000" stroke="none">
<path d="M1588 4403 l-78 -4 0 -299 0 -300 -155 0 -155 0 0 300 0 300 -150 0
-150 0 0 -745 0 -745 150 0 150 0 0 300 0 300 155 0 155 0 0 -298 0 -299 113
-6 c61 -4 129 -7 150 -7 l37 0 0 755 0 755 -72 -2 c-40 -1 -108 -4 -150 -5z"/>
<path d="M2110 3660 l0 -750 150 0 150 0 0 750 0 750 -150 0 -150 0 0 -750z"/>
<path d="M3910 2160 l0 -150 150 0 150 0 0 150 0 150 -150 0 -150 0 0 -150z"/>
<path d="M3310 2155 l0 -145 150 0 150 0 0 145 0 145 -150 0 -150 0 0 -145z"/>
<path d="M3908 1608 c-3 -89 -6 -108 -26 -136 -46 -63 -145 -86 -200 -45 -58
43 -72 78 -72 179 l0 94 -150 0 -150 0 0 -77 c0 -162 38 -275 122 -368 93
-102 217 -151 365 -143 69 4 93 10 156 41 43 21 94 57 123 86 96 96 134 200
134 368 l0 103 -149 0 -149 0 -4 -102z"/>
</g>
</svg>
