<?xml version="1.0" encoding="UTF-8"?>
<!DOCTYPE svg PUBLIC "-//W3C//DTD SVG 1.1//EN" "http://www.w3.org/Graphics/SVG/1.1/DTD/svg11.dtd">
<svg xmlns="http://www.w3.org/2000/svg" version="1.1" width="512px" height="512px" style="shape-rendering:geometricPrecision; text-rendering:geometricPrecision; image-rendering:optimizeQuality; fill-rule:evenodd; clip-rule:evenodd" xmlns:xlink="http://www.w3.org/1999/xlink">
<g><path style="opacity:0.993" fill="#f2f4f8" d="M 165.5,10.5 C 165.5,20.5 165.5,30.5 165.5,40.5C 133.165,40.3334 100.832,40.5 68.5,41C 47.8889,44.944 35.0556,57.1107 30,77.5C 29.3333,142.167 29.3333,206.833 30,271.5C 43.4222,264.539 56.9222,257.706 70.5,251C 102.165,250.5 133.832,250.333 165.5,250.5C 165.5,260.5 165.5,270.5 165.5,280.5C 200.52,280.8 235.52,280.466 270.5,279.5C 270.333,316.835 270.5,354.168 271,391.5C 274.727,411.23 286.227,424.063 305.5,430C 328.831,430.5 352.164,430.667 375.5,430.5C 397.34,430.169 419.006,430.503 440.5,431.5C 418.833,431.5 397.167,431.5 375.5,431.5C 375.5,441.167 375.5,450.833 375.5,460.5C 394.674,460.17 413.674,460.503 432.5,461.5C 391.165,461.667 349.832,461.5 308.5,461C 271.587,455.755 249.087,434.921 241,398.5C 240.5,359.501 240.333,320.501 240.5,281.5C 186.166,281.333 131.832,281.5 77.5,282C 51.6012,295.116 25.6012,307.95 -0.5,320.5C -0.5,238.167 -0.5,155.833 -0.5,73.5C 7.52054,38.6488 29.1872,17.8155 64.5,11C 98.165,10.5 131.832,10.3333 165.5,10.5 Z"/></g>
<g><path style="opacity:1" fill="#e0e5f0" d="M 165.5,10.5 C 200.868,10.0403 236.202,10.5403 271.5,12C 303.665,20.497 323.165,40.997 330,73.5C 330.5,112.499 330.667,151.499 330.5,190.5C 330.89,200.923 330.224,211.256 328.5,221.5C 322.405,248.437 306.405,266.937 280.5,277C 277.176,277.943 273.843,278.776 270.5,279.5C 235.52,280.466 200.52,280.8 165.5,280.5C 165.5,270.5 165.5,260.5 165.5,250.5C 198.835,250.667 232.168,250.5 265.5,250C 284.35,244.814 295.85,232.647 300,213.5C 300.667,168.167 300.667,122.833 300,77.5C 294.847,56.6811 281.68,44.5144 260.5,41C 228.835,40.5 197.168,40.3334 165.5,40.5C 165.5,30.5 165.5,20.5 165.5,10.5 Z"/></g>
<g><path style="opacity:1" fill="#66cbfe" d="M 165.5,40.5 C 165.5,50.5 165.5,60.5 165.5,70.5C 160.5,70.5 155.5,70.5 150.5,70.5C 150.5,90.5 150.5,110.5 150.5,130.5C 140.167,130.5 129.833,130.5 119.5,130.5C 119.5,110.5 119.5,90.5 119.5,70.5C 109.5,70.5 99.5,70.5 89.5,70.5C 89.5,120.5 89.5,170.5 89.5,220.5C 99.5,220.5 109.5,220.5 119.5,220.5C 119.5,200.5 119.5,180.5 119.5,160.5C 129.833,160.5 140.167,160.5 150.5,160.5C 150.5,180.5 150.5,200.5 150.5,220.5C 155.5,220.5 160.5,220.5 165.5,220.5C 165.5,230.5 165.5,240.5 165.5,250.5C 133.832,250.333 102.165,250.5 70.5,251C 56.9222,257.706 43.4222,264.539 30,271.5C 29.3333,206.833 29.3333,142.167 30,77.5C 35.0556,57.1107 47.8889,44.944 68.5,41C 100.832,40.5 133.165,40.3334 165.5,40.5 Z"/></g>
<g><path style="opacity:1" fill="#59abfe" d="M 165.5,40.5 C 197.168,40.3334 228.835,40.5 260.5,41C 281.68,44.5144 294.847,56.6811 300,77.5C 300.667,122.833 300.667,168.167 300,213.5C 295.85,232.647 284.35,244.814 265.5,250C 232.168,250.5 198.835,250.667 165.5,250.5C 165.5,240.5 165.5,230.5 165.5,220.5C 170.5,220.5 175.5,220.5 180.5,220.5C 180.5,170.5 180.5,120.5 180.5,70.5C 175.5,70.5 170.5,70.5 165.5,70.5C 165.5,60.5 165.5,50.5 165.5,40.5 Z"/></g>
<g><path style="opacity:1" fill="#eb4c36" d="M 165.5,70.5 C 165.5,120.5 165.5,170.5 165.5,220.5C 160.5,220.5 155.5,220.5 150.5,220.5C 150.5,200.5 150.5,180.5 150.5,160.5C 140.167,160.5 129.833,160.5 119.5,160.5C 119.5,180.5 119.5,200.5 119.5,220.5C 109.5,220.5 99.5,220.5 89.5,220.5C 89.5,170.5 89.5,120.5 89.5,70.5C 99.5,70.5 109.5,70.5 119.5,70.5C 119.5,90.5 119.5,110.5 119.5,130.5C 129.833,130.5 140.167,130.5 150.5,130.5C 150.5,110.5 150.5,90.5 150.5,70.5C 155.5,70.5 160.5,70.5 165.5,70.5 Z"/></g>
<g><path style="opacity:1" fill="#e52e2e" d="M 165.5,70.5 C 170.5,70.5 175.5,70.5 180.5,70.5C 180.5,120.5 180.5,170.5 180.5,220.5C 175.5,220.5 170.5,220.5 165.5,220.5C 165.5,170.5 165.5,120.5 165.5,70.5 Z"/></g>
<g><path style="opacity:1" fill="#e52e2e" d="M 210.5,70.5 C 220.5,70.5 230.5,70.5 240.5,70.5C 240.5,120.5 240.5,170.5 240.5,220.5C 230.5,220.5 220.5,220.5 210.5,220.5C 210.5,170.5 210.5,120.5 210.5,70.5 Z"/></g>
<g><path style="opacity:0.989" fill="#f2f4f8" d="M 330.5,190.5 C 345.5,190.5 360.5,190.5 375.5,190.5C 375.5,200.5 375.5,210.5 375.5,220.5C 359.991,220.17 344.658,220.504 329.5,221.5C 329.167,221.5 328.833,221.5 328.5,221.5C 330.224,211.256 330.89,200.923 330.5,190.5 Z"/></g>
<g><path style="opacity:1" fill="#e1e6f0" d="M 375.5,190.5 C 399.169,190.333 422.836,190.5 446.5,191C 481.813,197.815 503.479,218.649 511.5,253.5C 511.5,335.833 511.5,418.167 511.5,500.5C 485.039,487.769 458.706,474.769 432.5,461.5C 413.674,460.503 394.674,460.17 375.5,460.5C 375.5,450.833 375.5,441.167 375.5,431.5C 397.167,431.5 418.833,431.5 440.5,431.5C 453.807,438.153 467.14,444.82 480.5,451.5C 480.833,419.167 481.167,386.833 481.5,354.5C 481.653,320.787 481.153,287.121 480,253.5C 474.763,237.263 463.93,226.763 447.5,222C 423.544,220.55 399.544,220.05 375.5,220.5C 375.5,210.5 375.5,200.5 375.5,190.5 Z"/></g>
<g><path style="opacity:1" fill="#fede40" d="M 328.5,221.5 C 328.833,221.5 329.167,221.5 329.5,221.5C 344.833,221.5 360.167,221.5 375.5,221.5C 375.5,271.167 375.5,320.833 375.5,370.5C 367.494,370.326 362.66,366.326 361,358.5C 360.501,352.509 360.334,346.509 360.5,340.5C 350.5,340.5 340.5,340.5 330.5,340.5C 327.255,361.075 333.255,378.242 348.5,392C 356.53,397.955 365.53,400.788 375.5,400.5C 375.5,410.5 375.5,420.5 375.5,430.5C 352.164,430.667 328.831,430.5 305.5,430C 286.227,424.063 274.727,411.23 271,391.5C 270.5,354.168 270.333,316.835 270.5,279.5C 273.843,278.776 277.176,277.943 280.5,277C 306.405,266.937 322.405,248.437 328.5,221.5 Z"/></g>
<g><path style="opacity:1" fill="#febe40" d="M 329.5,221.5 C 344.658,220.504 359.991,220.17 375.5,220.5C 399.544,220.05 423.544,220.55 447.5,222C 463.93,226.763 474.763,237.263 480,253.5C 481.153,287.121 481.653,320.787 481.5,354.5C 481.167,386.833 480.833,419.167 480.5,451.5C 467.14,444.82 453.807,438.153 440.5,431.5C 419.006,430.503 397.34,430.169 375.5,430.5C 375.5,420.5 375.5,410.5 375.5,400.5C 397.617,399.551 412.117,388.551 419,367.5C 420.381,358.568 420.881,349.568 420.5,340.5C 410.5,340.5 400.5,340.5 390.5,340.5C 390.666,346.842 390.5,353.175 390,359.5C 388.132,365.841 383.965,369.508 377.5,370.5C 376.833,370.5 376.167,370.5 375.5,370.5C 375.5,320.833 375.5,271.167 375.5,221.5C 360.167,221.5 344.833,221.5 329.5,221.5 Z"/></g>
<g><path style="opacity:1" fill="#5b6d75" d="M 330.5,280.5 C 340.5,280.5 350.5,280.5 360.5,280.5C 360.5,290.5 360.5,300.5 360.5,310.5C 350.5,310.5 340.5,310.5 330.5,310.5C 330.5,300.5 330.5,290.5 330.5,280.5 Z"/></g>
<g><path style="opacity:1" fill="#485b60" d="M 390.5,280.5 C 400.5,280.5 410.5,280.5 420.5,280.5C 420.5,290.5 420.5,300.5 420.5,310.5C 410.5,310.5 400.5,310.5 390.5,310.5C 390.5,300.5 390.5,290.5 390.5,280.5 Z"/></g>
<g><path style="opacity:1" fill="#5a6d75" d="M 375.5,370.5 C 376.167,370.5 376.833,370.5 377.5,370.5C 375.564,380.24 374.898,390.24 375.5,400.5C 365.53,400.788 356.53,397.955 348.5,392C 333.255,378.242 327.255,361.075 330.5,340.5C 340.5,340.5 350.5,340.5 360.5,340.5C 360.334,346.509 360.501,352.509 361,358.5C 362.66,366.326 367.494,370.326 375.5,370.5 Z"/></g>
<g><path style="opacity:1" fill="#475a61" d="M 375.5,400.5 C 374.898,390.24 375.564,380.24 377.5,370.5C 383.965,369.508 388.132,365.841 390,359.5C 390.5,353.175 390.666,346.842 390.5,340.5C 400.5,340.5 410.5,340.5 420.5,340.5C 420.881,349.568 420.381,358.568 419,367.5C 412.117,388.551 397.617,399.551 375.5,400.5 Z"/></g>
</svg>
